<?xml version="1.0" encoding="UTF-8" standalone="no"?>
<!DOCTYPE svg PUBLIC "-//W3C//DTD SVG 1.1//EN"
 "http://www.w3.org/Graphics/SVG/1.1/DTD/svg11.dtd">
<!-- Generated by graphviz version 2.47.2 (20210527.0053)
 -->
<!-- Title: G Pages: 1 -->
<svg width="359pt" height="685pt"
 viewBox="0.00 0.00 358.61 685.41" xmlns="http://www.w3.org/2000/svg" xmlns:xlink="http://www.w3.org/1999/xlink">
<g id="graph0" class="graph" transform="scale(1 1) rotate(0) translate(4 681.41)">
<title>G</title><style>.edge>path:hover{stroke-width:8}</style>
<polygon fill="white" stroke="transparent" points="-4,4 -4,-681.41 354.61,-681.41 354.61,4 -4,4"/>
<!-- src_core -->
<g id="node1" class="node">
<title>src_core</title><style>.edge>path:hover{stroke-width:8}</style>
<ellipse fill="#4778c2" stroke="black" cx="30.61" cy="-384.43" rx="30.72" ry="18"/>
<text text-anchor="middle" x="30.61" y="-381.93" font-family="Helvetica,sans-Serif" font-size="10.00" fill="#ffffff">src.core</text>
</g>
<!-- src_core_config -->
<g id="node2" class="node">
<title>src_core_config</title><style>.edge>path:hover{stroke-width:8}</style>
<ellipse fill="#4073c0" stroke="black" cx="69.61" cy="-467.42" rx="30.31" ry="28.98"/>
<text text-anchor="middle" x="69.61" y="-475.92" font-family="Helvetica,sans-Serif" font-size="10.00" fill="#ffffff">src.</text>
<text text-anchor="middle" x="69.61" y="-464.92" font-family="Helvetica,sans-Serif" font-size="10.00" fill="#ffffff">core.</text>
<text text-anchor="middle" x="69.61" y="-453.92" font-family="Helvetica,sans-Serif" font-size="10.00" fill="#ffffff">config</text>
</g>
<!-- pydantic -->
<g id="node11" class="node">
<title>pydantic</title><style>.edge>path:hover{stroke-width:8}</style>
<polygon fill="#a9c247" stroke="black" points="218.61,-677.41 215.61,-681.41 194.61,-681.41 191.61,-677.41 164.61,-677.41 164.61,-641.41 218.61,-641.41 218.61,-677.41"/>
<text text-anchor="middle" x="191.61" y="-656.91" font-family="Helvetica,sans-Serif" font-size="10.00" fill="#000000">pydantic</text>
</g>
<!-- src_core_config&#45;&gt;pydantic -->
<g id="edge3" class="edge">
<title>src_core_config&#45;&gt;pydantic</title><style>.edge>path:hover{stroke-width:8}</style>
<path fill="none" stroke="black" d="M191.61,-605.41C195.1,-613.2 196.06,-622.31 195.86,-630.76"/>
<polygon fill="#4073c0" stroke="black" points="192.36,-630.72 195.1,-640.95 199.34,-631.24 192.36,-630.72"/>
<path fill="none" stroke="black" d="M67.79,-496.66C67.91,-518.68 71.66,-548.73 88.61,-568.41 120.26,-605.15 171.8,-560.15 191.61,-604.41"/>
</g>
<!-- src_db -->
<g id="node3" class="node">
<title>src_db</title><style>.edge>path:hover{stroke-width:8}</style>
<ellipse fill="#3865a8" stroke="black" cx="37.61" cy="-312.43" rx="27" ry="18"/>
<text text-anchor="middle" x="37.61" y="-309.93" font-family="Helvetica,sans-Serif" font-size="10.00" fill="#ffffff">src.db</text>
</g>
<!-- src_db&#45;&gt;src_core -->
<g id="edge7" class="edge">
<title>src_db&#45;&gt;src_core</title><style>.edge>path:hover{stroke-width:8}</style>
<path fill="none" stroke="black" d="M35.88,-330.73C35.11,-338.44 34.18,-347.71 33.32,-356.31"/>
<polygon fill="#3865a8" stroke="black" points="29.83,-356.02 32.32,-366.32 36.8,-356.72 29.83,-356.02"/>
</g>
<!-- src_db&#45;&gt;src_core_config -->
<g id="edge8" class="edge">
<title>src_db&#45;&gt;src_core_config</title><style>.edge>path:hover{stroke-width:8}</style>
<path fill="none" stroke="black" d="M89.61,-385.43C95.31,-400.26 92.45,-417.25 87.32,-431.82"/>
<polygon fill="#3865a8" stroke="black" points="83.93,-430.89 83.49,-441.47 90.44,-433.47 83.93,-430.89"/>
<path fill="none" stroke="black" d="M52.06,-327.8C64.35,-341.02 81.3,-361.8 89.61,-383.43"/>
</g>
<!-- sqlalchemy -->
<g id="node12" class="node">
<title>sqlalchemy</title><style>.edge>path:hover{stroke-width:8}</style>
<polygon fill="#0cf368" stroke="black" points="163.61,-568.41 160.61,-572.41 139.61,-572.41 136.61,-568.41 97.61,-568.41 97.61,-532.41 163.61,-532.41 163.61,-568.41"/>
<text text-anchor="middle" x="130.61" y="-547.91" font-family="Helvetica,sans-Serif" font-size="10.00" fill="#000000">sqlalchemy</text>
</g>
<!-- src_db&#45;&gt;sqlalchemy -->
<g id="edge5" class="edge">
<title>src_db&#45;&gt;sqlalchemy</title><style>.edge>path:hover{stroke-width:8}</style>
<path fill="none" stroke="black" d="M127.61,-468.42C130.25,-486.17 131,-506.34 131.1,-522.11"/>
<polygon fill="#3865a8" stroke="black" points="127.6,-522.23 131.07,-532.24 134.6,-522.25 127.6,-522.23"/>
<path fill="none" stroke="black" d="M89.61,-385.43C103.87,-422.54 121.76,-427.09 127.61,-466.42"/>
</g>
<!-- src_facade -->
<g id="node4" class="node">
<title>src_facade</title><style>.edge>path:hover{stroke-width:8}</style>
<ellipse fill="#3d6eb8" stroke="black" cx="141.61" cy="-162" rx="36.49" ry="18"/>
<text text-anchor="middle" x="141.61" y="-159.5" font-family="Helvetica,sans-Serif" font-size="10.00" fill="#ffffff">src.facade</text>
</g>
<!-- src_repositories -->
<g id="node7" class="node">
<title>src_repositories</title><style>.edge>path:hover{stroke-width:8}</style>
<ellipse fill="#3865a8" stroke="black" cx="132.61" cy="-237.21" rx="47.25" ry="21.43"/>
<text text-anchor="middle" x="132.61" y="-240.21" font-family="Helvetica,sans-Serif" font-size="10.00" fill="#ffffff">src.</text>
<text text-anchor="middle" x="132.61" y="-229.21" font-family="Helvetica,sans-Serif" font-size="10.00" fill="#ffffff">repositories</text>
</g>
<!-- src_facade&#45;&gt;src_repositories -->
<g id="edge12" class="edge">
<title>src_facade&#45;&gt;src_repositories</title><style>.edge>path:hover{stroke-width:8}</style>
<path fill="none" stroke="black" d="M139.52,-179.98C138.58,-187.69 137.42,-197.05 136.34,-205.91"/>
<polygon fill="#3d6eb8" stroke="black" points="132.85,-205.59 135.1,-215.94 139.8,-206.44 132.85,-205.59"/>
</g>
<!-- src_main -->
<g id="node5" class="node">
<title>src_main</title><style>.edge>path:hover{stroke-width:8}</style>
<ellipse fill="#3d5e8f" stroke="black" cx="268.61" cy="-18" rx="31.58" ry="18"/>
<text text-anchor="middle" x="268.61" y="-15.5" font-family="Helvetica,sans-Serif" font-size="10.00" fill="#ffffff">src.main</text>
</g>
<!-- src_routers -->
<g id="node8" class="node">
<title>src_routers</title><style>.edge>path:hover{stroke-width:8}</style>
<ellipse fill="#3560a1" stroke="black" cx="213.61" cy="-90" rx="37.17" ry="18"/>
<text text-anchor="middle" x="213.61" y="-87.5" font-family="Helvetica,sans-Serif" font-size="10.00" fill="#ffffff">src.routers</text>
</g>
<!-- src_main&#45;&gt;src_routers -->
<g id="edge13" class="edge">
<title>src_main&#45;&gt;src_routers</title><style>.edge>path:hover{stroke-width:8}</style>
<path fill="none" stroke="black" d="M256.13,-34.88C249.2,-43.71 240.43,-54.87 232.65,-64.76"/>
<polygon fill="#3d5e8f" stroke="black" points="229.85,-62.67 226.42,-72.69 235.35,-66.99 229.85,-62.67"/>
</g>
<!-- fastapi -->
<g id="node10" class="node">
<title>fastapi</title><style>.edge>path:hover{stroke-width:8}</style>
<polygon fill="#b83d3d" stroke="black" points="295.61,-255.21 292.61,-259.21 271.61,-259.21 268.61,-255.21 241.61,-255.21 241.61,-219.21 295.61,-219.21 295.61,-255.21"/>
<text text-anchor="middle" x="268.61" y="-234.71" font-family="Helvetica,sans-Serif" font-size="10.00" fill="#ffffff">fastapi</text>
</g>
<!-- src_main&#45;&gt;fastapi -->
<g id="edge1" class="edge">
<title>src_main&#45;&gt;fastapi</title><style>.edge>path:hover{stroke-width:8}</style>
<path fill="none" stroke="black" d="M323.61,-163C320.3,-181.71 308.09,-198.91 296.01,-211.93"/>
<polygon fill="#3d5e8f" stroke="black" points="293.49,-209.51 288.98,-219.1 298.48,-214.41 293.49,-209.51"/>
<path fill="none" stroke="black" d="M280.92,-34.6C299.62,-60.13 332.14,-112.84 323.61,-161"/>
</g>
<!-- starlette -->
<g id="node13" class="node">
<title>starlette</title><style>.edge>path:hover{stroke-width:8}</style>
<polygon fill="#b82fdb" stroke="black" points="350.61,-402.43 347.61,-406.43 326.61,-406.43 323.61,-402.43 296.61,-402.43 296.61,-366.43 350.61,-366.43 350.61,-402.43"/>
<text text-anchor="middle" x="323.61" y="-381.93" font-family="Helvetica,sans-Serif" font-size="10.00" fill="#ffffff">starlette</text>
</g>
<!-- src_main&#45;&gt;starlette -->
<g id="edge17" class="edge">
<title>src_main&#45;&gt;starlette</title><style>.edge>path:hover{stroke-width:8}</style>
<path fill="none" stroke="black" d="M323.61,-163C317.06,-228.64 312.11,-246.47 323.61,-311.43"/>
</g>
<!-- src_models -->
<g id="node6" class="node">
<title>src_models</title><style>.edge>path:hover{stroke-width:8}</style>
<ellipse fill="#3a69b0" stroke="black" cx="120.61" cy="-312.43" rx="38.03" ry="18"/>
<text text-anchor="middle" x="120.61" y="-309.93" font-family="Helvetica,sans-Serif" font-size="10.00" fill="#ffffff">src.models</text>
</g>
<!-- src_models&#45;&gt;sqlalchemy -->
<g id="edge6" class="edge">
<title>src_models&#45;&gt;sqlalchemy</title><style>.edge>path:hover{stroke-width:8}</style>
<path fill="none" stroke="black" d="M120.45,-330.49C120.39,-358.84 121.17,-417.38 127.61,-466.42"/>
</g>
<!-- src_repositories&#45;&gt;src_db -->
<g id="edge9" class="edge">
<title>src_repositories&#45;&gt;src_db</title><style>.edge>path:hover{stroke-width:8}</style>
<path fill="none" stroke="black" d="M109.61,-255.94C95.48,-266.83 77.35,-280.8 62.82,-292"/>
<polygon fill="#3865a8" stroke="black" points="60.52,-289.35 54.74,-298.23 64.8,-294.89 60.52,-289.35"/>
</g>
<!-- src_repositories&#45;&gt;src_models -->
<g id="edge11" class="edge">
<title>src_repositories&#45;&gt;src_models</title><style>.edge>path:hover{stroke-width:8}</style>
<path fill="none" stroke="black" d="M129.27,-258.61C127.98,-266.46 126.49,-275.56 125.11,-283.98"/>
<polygon fill="#3865a8" stroke="black" points="121.61,-283.68 123.45,-294.12 128.52,-284.81 121.61,-283.68"/>
</g>
<!-- src_schemas -->
<g id="node9" class="node">
<title>src_schemas</title><style>.edge>path:hover{stroke-width:8}</style>
<ellipse fill="#3370cc" stroke="black" cx="219.61" cy="-312.43" rx="42.94" ry="18"/>
<text text-anchor="middle" x="219.61" y="-309.93" font-family="Helvetica,sans-Serif" font-size="10.00" fill="#ffffff">src.schemas</text>
</g>
<!-- src_repositories&#45;&gt;src_schemas -->
<g id="edge14" class="edge">
<title>src_repositories&#45;&gt;src_schemas</title><style>.edge>path:hover{stroke-width:8}</style>
<path fill="none" stroke="black" d="M154.12,-256.31C166,-266.31 180.87,-278.82 193.43,-289.39"/>
<polygon fill="#3865a8" stroke="black" points="191.39,-292.25 201.29,-296.01 195.9,-286.89 191.39,-292.25"/>
</g>
<!-- src_routers&#45;&gt;src_facade -->
<g id="edge10" class="edge">
<title>src_routers&#45;&gt;src_facade</title><style>.edge>path:hover{stroke-width:8}</style>
<path fill="none" stroke="black" d="M197.63,-106.54C188.03,-115.87 175.64,-127.91 164.96,-138.3"/>
<polygon fill="#3560a1" stroke="black" points="162.28,-136.03 157.54,-145.51 167.15,-141.05 162.28,-136.03"/>
</g>
<!-- src_routers&#45;&gt;src_schemas -->
<g id="edge15" class="edge">
<title>src_routers&#45;&gt;src_schemas</title><style>.edge>path:hover{stroke-width:8}</style>
<path fill="none" stroke="black" d="M213.61,-163C221.02,-204.84 221.38,-254.31 220.69,-284.25"/>
<polygon fill="#3560a1" stroke="black" points="217.19,-284.25 220.4,-294.35 224.19,-284.45 217.19,-284.25"/>
<path fill="none" stroke="black" d="M211.77,-108.15C210.67,-122.44 210.09,-143.24 213.61,-161"/>
</g>
<!-- src_routers&#45;&gt;fastapi -->
<g id="edge2" class="edge">
<title>src_routers&#45;&gt;fastapi</title><style>.edge>path:hover{stroke-width:8}</style>
<path fill="none" stroke="black" d="M213.61,-163C216.92,-181.71 229.14,-198.91 241.21,-211.93"/>
<polygon fill="#3560a1" stroke="black" points="238.74,-214.41 248.24,-219.1 243.73,-209.51 238.74,-214.41"/>
</g>
<!-- src_schemas&#45;&gt;pydantic -->
<g id="edge4" class="edge">
<title>src_schemas&#45;&gt;pydantic</title><style>.edge>path:hover{stroke-width:8}</style>
<path fill="none" stroke="black" d="M212.59,-330.34C194.57,-376.44 150.87,-507.3 191.61,-604.41"/>
</g>
<!-- fastapi&#45;&gt;starlette -->
<g id="edge16" class="edge">
<title>fastapi&#45;&gt;starlette</title><style>.edge>path:hover{stroke-width:8}</style>
<path fill="none" stroke="black" d="M323.61,-313.43C326.08,-327.36 326.3,-343.09 325.81,-356.11"/>
<polygon fill="#b83d3d" stroke="black" points="322.3,-356.13 325.27,-366.31 329.29,-356.51 322.3,-356.13"/>
<path fill="none" stroke="black" d="M288.98,-255.33C302.95,-268.82 319.65,-289.04 323.61,-311.43"/>
</g>
</g>
</svg>
